<?xml version="1.0" encoding="UTF-8" standalone="no"?>
<svg
   xmlns:dc="http://purl.org/dc/elements/1.1/"
   xmlns:cc="http://creativecommons.org/ns#"
   xmlns:rdf="http://www.w3.org/1999/02/22-rdf-syntax-ns#"
   xmlns:svg="http://www.w3.org/2000/svg"
   xmlns="http://www.w3.org/2000/svg"
   xmlns:xlink="http://www.w3.org/1999/xlink"
   xmlns:sodipodi="http://sodipodi.sourceforge.net/DTD/sodipodi-0.dtd"
   xmlns:inkscape="http://www.inkscape.org/namespaces/inkscape"
   inkscape:version="1.0 (4035a4fb49, 2020-05-01)"
   sodipodi:docname="pop-art-background.svg"
   id="svg100"
   viewBox="0 0 6967.4573 4223.8328"
   version="1.0"
   text-rendering="geometricPrecision"
   shape-rendering="geometricPrecision"
   image-rendering="optimizeQuality"
   fill-rule="evenodd"
   clip-rule="evenodd"
   height="42.241322mm"
   width="69.673767mm">
  <metadata
     id="metadata104">
    <rdf:RDF>
      <cc:Work
         rdf:about="">
        <dc:format>image/svg+xml</dc:format>
        <dc:type
           rdf:resource="http://purl.org/dc/dcmitype/StillImage" />
      </cc:Work>
    </rdf:RDF>
  </metadata>
  <sodipodi:namedview
     inkscape:current-layer="svg100"
     inkscape:window-maximized="1"
     inkscape:window-y="183"
     inkscape:window-x="1672"
     inkscape:cy="54.001144"
     inkscape:cx="51.174044"
     inkscape:zoom="2.452796"
     showgrid="false"
     id="namedview102"
     inkscape:window-height="745"
     inkscape:window-width="1366"
     inkscape:pageshadow="2"
     inkscape:pageopacity="0"
     guidetolerance="10"
     gridtolerance="10"
     objecttolerance="10"
     borderopacity="1"
     bordercolor="#666666"
     pagecolor="#ffffff" />
  <defs
     id="defs76">
    <style
       id="style58"
       type="text/css">.fil9 {fill:none} .fil7 {fill:url(#a)} .fil3 {fill:url(#i)} .fil0 {fill:url(#h)} .fil8 {fill:url(#g)} .fil4 {fill:url(#f)} .fil1 {fill:url(#e)} .fil6 {fill:url(#d)} .fil5 {fill:url(#c)} .fil2 {fill:url(#b)}</style>
    <clipPath
       id="j">
      <path
         id="path60"
         d="M 1410,-519 H 8141 V 3545 H 1410 Z" />
    </clipPath>
    <linearGradient
       gradientUnits="userSpaceOnUse"
       y2="4655.3999"
       y1="-12.55"
       x2="1419.5"
       x1="2763.7"
       id="a">
      <stop
         id="stop63"
         offset="0"
         stop-color="#004AAB" />
      <stop
         id="stop65"
         offset="1"
         stop-color="#9ff" />
    </linearGradient>
    <linearGradient
       xlink:href="#a"
       gradientUnits="userSpaceOnUse"
       y2="672.38"
       y1="1084.3"
       x2="9532.0996"
       x1="5067.8999"
       id="i" />
    <linearGradient
       xlink:href="#a"
       gradientUnits="userSpaceOnUse"
       y2="518.10999"
       y1="929.98999"
       x2="10638"
       x1="6173.5"
       id="h" />
    <linearGradient
       xlink:href="#a"
       gradientUnits="userSpaceOnUse"
       y2="1043.5"
       y1="4553.2002"
       x2="4162.2998"
       x1="1683.2"
       id="g" />
    <linearGradient
       xlink:href="#a"
       gradientUnits="userSpaceOnUse"
       y2="3408.8"
       y1="-562.69"
       x2="4079.7"
       x1="6967.7002"
       id="f" />
    <linearGradient
       xlink:href="#a"
       gradientUnits="userSpaceOnUse"
       y2="3254.6001"
       y1="-716.96002"
       x2="5185.2998"
       x1="8073.2998"
       id="e" />
    <linearGradient
       xlink:href="#a"
       gradientUnits="userSpaceOnUse"
       y2="230.8"
       y1="2175.2"
       x2="5638.6001"
       x1="1512.1"
       id="d" />
    <linearGradient
       xlink:href="#a"
       gradientUnits="userSpaceOnUse"
       y2="966.97998"
       y1="3343.2"
       x2="7851.2002"
       x1="4432.8999"
       id="c" />
    <linearGradient
       xlink:href="#a"
       gradientUnits="userSpaceOnUse"
       y2="812.71997"
       y1="3188.8999"
       x2="8956.7998"
       x1="5538.5"
       id="b" />
    <linearGradient
       y2="4655.3999"
       x2="1419.5"
       y1="-12.55"
       x1="2763.7"
       gradientUnits="userSpaceOnUse"
       id="linearGradient106"
       xlink:href="#a"
       inkscape:collect="always" />
  </defs>
  <g
     style="opacity:0.9"
     transform="matrix(1.0351296,0,0,1.0394146,-1459.5327,539.28175)"
     id="g96"
     clip-path="url(#j)">
    <path
       style="fill:url(#h)"
       id="path78"
       d="m 9371,-2899 c -184,-262 -321,2094 452,5499 517,2276 3243,3117 3032,2915 211,202 190,442 79,574 -119,141 -356,182 -573,-67 C 12578,6271 10703,4877 8907,3384 7117,1897 5449,253 5920,188 c -471,65 0,-1115 990,-1988 965,-850 2277,-1361 2461,-1099 z"
       class="fil0" />
    <path
       style="fill:url(#e)"
       id="path80"
       d="m 6584,-2428 c -272,-165 414,1853 2286,4819 1221,1934 3924,2206 3671,2040 253,166 306,414 242,577 -69,174 -282,288 -564,114 282,174 -1931,-566 -4107,-1412 C 5943,2866 3837,1839 4266,1624 3837,1839 3911,570 4576,-573 5224,-1686 6312,-2593 6584,-2428 Z"
       class="fil1" />
    <path
       style="fill:url(#b)"
       id="path82"
       d="m 5243,-2058 c -263,-231 1010,2802 3025,4480 1846,1539 4022,2549 3739,2411 283,138 362,357 301,515 -65,167 -280,274 -563,110 C 12028,5622 9828,4847 7647,4026 5464,3204 3358,2178 3772,1992 c -414,186 -189,-915 219,-2036 407,-1123 989,-2245 1252,-2014 z"
       class="fil2" />
    <path
       style="fill:url(#i)"
       id="path84"
       d="m 8266,-2745 c -184,-262 -321,2094 452,5499 516,2276 3243,3118 3032,2915 211,203 189,443 78,574 -119,141 -356,182 -573,-67 C 11472,6425 9598,5031 7801,3539 6012,2052 4344,407 4814,342 c -470,65 1,-1115 991,-1987 965,-851 2277,-1362 2461,-1100 z"
       class="fil3" />
    <path
       style="fill:url(#f)"
       id="path86"
       d="m 5479,-2273 c -273,-165 414,1852 2286,4818 1221,1935 3923,2206 3671,2040 252,166 305,415 241,577 -69,175 -282,289 -564,114 C 11395,5451 9183,4710 7007,3864 4837,3020 2732,1993 3160,1779 2732,1993 2806,724 3471,-419 4119,-1531 5206,-2438 5479,-2273 Z"
       class="fil4" />
    <path
       style="fill:url(#c)"
       id="path88"
       d="m 4138,-1904 c -264,-231 1010,2802 3024,4480 1847,1539 4022,2549 3740,2412 282,137 361,356 300,515 -64,166 -280,274 -563,109 C 10922,5777 8723,5001 6541,4180 4359,3359 2252,2333 2667,2146 c -415,187 -189,-914 218,-2036 408,-1122 989,-2245 1253,-2014 z"
       class="fil5" />
    <path
       style="fill:url(#d)"
       id="path90"
       d="m 3246,-2532 c -262,-184 413,2077 2302,5014 1262,1964 4113,1824 3845,1705 268,119 329,351 270,513 -64,173 -273,292 -561,132 C 9390,4992 7153,4322 4955,3532 2765,2746 636,1769 1056,1547 636,1769 676,499 1308,-659 1925,-1787 2984,-2716 3246,-2532 Z"
       class="fil6" />
    <path
       style="fill:url(#linearGradient106)"
       id="path92"
       d="m 788,-1138 c -313,-62 1021,1600 3793,3749 1808,1402 4441,734 4147,664 294,70 429,286 424,461 -5,187 -167,367 -491,299 324,68 -2008,127 -4342,74 C 1992,4057 -338,3810 -9,3462 -338,3810 -702,2592 -467,1291 -237,24 475,-1200 788,-1138 Z"
       class="fil7" />
    <path
       style="fill:url(#g)"
       id="path94"
       d="m -347,-333 c -326,-126 1906,2289 4372,3179 2261,816 4651,1023 4339,990 312,33 461,212 457,382 -3,178 -169,353 -491,295 322,58 -2010,80 -4341,52 -2332,-27 -4662,-272 -4336,-589 -326,317 -490,-795 -490,-1988 0,-1194 164,-2447 490,-2321 z"
       class="fil8" />
  </g>
  <path
     id="path98"
     d="M -282.22328,-518.85501 H 6448.7767 V 3545.145 H -282.22328 Z"
     class="fil9" />
</svg>
