<svg width="90" height="35" viewBox="0 0 90 35" fill="none"
    xmlns="http://www.w3.org/2000/svg">
    <g style="mix-blend-mode:overlay">
        <path style="fill:#ffffff; opacity:0.3" fill-rule="evenodd" clip-rule="evenodd" d="M83.3635 4.96286H6.7178C5.709 4.96286 4.8882 5.78309 4.8882 6.79134V28.2088C4.8882 29.2174 5.70844 30.0382 6.7178 30.0382H83.3635C84.372 30.0382 85.1928 29.2178 85.1928 28.2088V6.79134C85.1923 5.78309 84.372 4.96286 83.3635 4.96286ZM86.201 0H3.28697C1.47193 0 0 1.47193 0 3.28668V31.7126C0 33.5281 1.47193 35 3.28697 35H86.2016C88.0166 35 89.4885 33.5281 89.4885 31.7126V3.28668C89.4884 1.47193 88.0166 0 86.201 0ZM86.4885 28.2088C86.4885 29.9315 85.0867 31.3339 83.3635 31.3339H6.7178C4.99478 31.3339 3.59241 29.932 3.59241 28.2088V6.79134C3.59241 5.06897 4.99432 3.66661 6.7178 3.66661H83.3635C85.0861 3.66661 86.4885 5.06851 86.4885 6.79134V28.2088ZM11.9111 19.3721C11.1885 19.1377 10.5659 18.8789 10.0435 18.5957C9.52589 18.3076 9.11086 17.9487 8.79836 17.519C8.48586 17.0894 8.32961 16.5791 8.32961 15.9883C8.32961 15.3975 8.49806 14.8774 8.83498 14.4282C9.17677 13.9741 9.64796 13.625 10.2486 13.3809C10.8491 13.1318 11.5352 13.0073 12.3067 13.0073C13.083 13.0073 13.7691 13.1465 14.3648 13.4248C14.9605 13.6982 15.4219 14.0864 15.749 14.5894C16.0762 15.0874 16.2398 15.6587 16.2398 16.3032H13.9473C13.9473 15.854 13.8032 15.4976 13.5152 15.2339C13.2319 14.9653 12.8145 14.8311 12.2627 14.8311C11.9111 14.8311 11.6109 14.8823 11.3618 14.9849C11.1177 15.0874 10.9321 15.229 10.8052 15.4097C10.6831 15.5854 10.6221 15.7832 10.6221 16.0029C10.6221 16.3301 10.7905 16.6084 11.1275 16.8379C11.4644 17.0625 11.9868 17.2847 12.6948 17.5044C13.8911 17.8706 14.7798 18.3296 15.3609 18.8813C15.9468 19.4282 16.2398 20.1313 16.2398 20.9907C16.2398 21.6108 16.0811 22.1455 15.7637 22.5947C15.4463 23.0391 14.9946 23.3784 14.4087 23.6128C13.8277 23.8472 13.1441 23.9644 12.3579 23.9644C11.606 23.9644 10.898 23.835 10.2339 23.5762C9.57472 23.3174 9.03761 22.9219 8.62257 22.3896C8.20753 21.8525 8.00002 21.1958 8.00002 20.4194H10.3071C10.3071 21.0298 10.4829 21.4717 10.8345 21.7451C11.1909 22.0137 11.6987 22.1479 12.3579 22.1479C12.8804 22.1479 13.2735 22.043 13.5371 21.833C13.8057 21.623 13.94 21.3472 13.94 21.0054C13.94 20.7515 13.8862 20.5391 13.7788 20.3682C13.6714 20.1973 13.4736 20.0337 13.1856 19.8774C12.8975 19.7212 12.4727 19.5527 11.9111 19.3721ZM24.0327 13.6152C23.4224 13.3076 22.7046 13.1538 21.8794 13.1538H17.69V23.8179H19.9898V20.1118H21.8794C22.7095 20.1118 23.4297 19.9727 24.0401 19.6943C24.6504 19.416 25.1167 19.0205 25.439 18.5078C25.7612 17.9951 25.9224 17.397 25.9224 16.7134C25.9224 16.0249 25.7588 15.4121 25.4317 14.875C25.1094 14.3379 24.6431 13.918 24.0327 13.6152ZM21.8794 18.2515C22.4605 18.2515 22.8926 18.1147 23.1758 17.8413C23.459 17.5679 23.6006 17.1968 23.6006 16.728C23.6006 16.4155 23.5396 16.1299 23.4175 15.8711C23.2954 15.6123 23.105 15.4048 22.8462 15.2485C22.5874 15.0923 22.2652 15.0142 21.8794 15.0142H19.9898V18.2515H21.8794ZM32.2139 21.7012H28.4346L27.7388 23.8179H25.2925L29.2476 13.1538H31.3862L35.3633 23.8179H32.9097L32.2139 21.7012ZM30.3169 15.9517L31.5986 19.8408H29.0425L30.3169 15.9517ZM44.145 22.1846C44.5015 21.623 44.7041 20.9761 44.7529 20.2437H42.4605C42.4165 20.8687 42.231 21.3325 41.9038 21.6353C41.5816 21.9331 41.0908 22.082 40.4317 22.082C39.9238 22.082 39.5161 21.9648 39.2085 21.7305C38.9009 21.4961 38.6763 21.1421 38.5347 20.6685C38.3931 20.1899 38.3223 19.5723 38.3223 18.8154V18.1489C38.3223 17.0259 38.4956 16.2007 38.8423 15.6733C39.189 15.146 39.7212 14.8823 40.439 14.8823C41.1275 14.8823 41.6255 15.041 41.9331 15.3584C42.2456 15.6709 42.4238 16.1494 42.4678 16.7939H44.7603C44.6919 16.0469 44.4844 15.3901 44.1377 14.8237C43.7959 14.2524 43.3125 13.8057 42.6875 13.4834C42.0625 13.1611 41.313 13 40.439 13C39.5454 13 38.7642 13.21 38.0952 13.6299C37.4263 14.0498 36.9087 14.6504 36.5425 15.4316C36.1763 16.208 35.9932 17.1187 35.9932 18.1636V18.8154C35.9932 19.8652 36.169 20.7783 36.5205 21.5547C36.877 22.3262 37.3897 22.9219 38.0586 23.3418C38.7276 23.7568 39.5186 23.9644 40.4317 23.9644C41.2861 23.9644 42.0308 23.8081 42.6655 23.4956C43.3003 23.1831 43.7935 22.7461 44.145 22.1846ZM53.3369 21.9648V23.8179H46.1372V13.1538H53.3296V15.0142H48.437V17.4385H52.6045V19.2329H48.437V21.9648H53.3369ZM62.1553 19.2109C61.8672 18.7812 61.4277 18.4907 60.8369 18.3394C61.3447 18.1392 61.7232 17.8413 61.9722 17.4458C62.2261 17.0454 62.353 16.5913 62.353 16.0835C62.353 15.1069 62.0039 14.3745 61.3057 13.8862C60.6123 13.3979 59.6236 13.1538 58.3394 13.1538H54.5747V23.8179H58.6983C59.9629 23.8179 60.9273 23.5518 61.5913 23.0195C62.2554 22.4873 62.5874 21.7036 62.5874 20.6685C62.5874 20.1216 62.4434 19.6357 62.1553 19.2109ZM56.8745 15.0142V17.6069H58.3394C58.9204 17.6069 59.3501 17.502 59.6284 17.292C59.9116 17.0771 60.0532 16.7598 60.0532 16.3398C60.0532 15.8711 59.9165 15.5342 59.6431 15.3291C59.3745 15.1191 58.94 15.0142 58.3394 15.0142H56.8745ZM58.6983 21.9648C59.2256 21.9648 59.6236 21.8452 59.8921 21.606C60.1607 21.3618 60.2949 21.042 60.2949 20.6465C60.2949 19.6895 59.7944 19.2109 58.7935 19.2109H56.8745V21.9648H58.6983ZM69.9776 21.7012H66.1983L65.5025 23.8179H63.0562L67.0112 13.1538H69.1499L73.127 23.8179H70.6734L69.9776 21.7012ZM68.0806 15.9517L69.3623 19.8408H66.8062L68.0806 15.9517ZM82.458 23.8179V23.708L80.1729 19.3721C80.7832 19.0938 81.252 18.7153 81.5791 18.2368C81.9063 17.7534 82.0698 17.1333 82.0698 16.3765C82.0698 15.6831 81.9111 15.0972 81.5938 14.6187C81.2764 14.1353 80.8198 13.7715 80.2241 13.5273C79.6333 13.2783 78.9253 13.1538 78.1001 13.1538H74.0718V23.8179H76.3716V19.9653H78.0342L79.9971 23.8179H82.458ZM76.3716 18.105H78.1001C78.647 18.105 79.062 17.9683 79.3452 17.6948C79.6284 17.4214 79.77 17.0454 79.77 16.5669C79.77 16.0786 79.6284 15.6978 79.3452 15.4243C79.0669 15.1509 78.6519 15.0142 78.1001 15.0142H76.3716V18.105Z" fill="black"/>
    </g>
</svg>
